Coordinates
version=1
nRows=32
nColumns=12
inDegrees=yes

Units are S.I. units (second, meters, Newtons, ...)
Angles are in degrees

endheader
time	SC_y	SC_z	SC_x	AC_y	AC_z	AC_x	GH_y	GH_z	GH_yy	EL_x	PS_y
       0.0              -52.73          35.87          76.59          48.09           4.85          -17.1         -74.42          59.86         -137.3          13.17          10.45
   0.02646              -52.72          35.87          76.58          48.09          4.848          -17.1         -74.42          59.87         -137.3          13.18          10.46
   0.05292              -52.72          35.86          76.58          48.09          4.845         -17.09         -74.42          59.87         -137.2          13.19          10.46
   0.07938              -52.71          35.86          76.57           48.1          4.842         -17.09         -74.42          59.87         -137.2           13.2          10.47
    0.1058              -52.71          35.86          76.56           48.1           4.84         -17.08         -74.42          59.88         -137.1          13.21          10.48
    0.1323               -52.7          35.85          76.56           48.1          4.836         -17.08         -74.42          59.88         -137.1          13.22          10.49
    0.1588               -52.7          35.85          76.55          48.11          4.833         -17.08         -74.43          59.89         -137.0          13.23           10.5
    0.1852              -52.69          35.84          76.54          48.11          4.829         -17.07         -74.43          59.89         -137.0          13.24          10.51
    0.2117              -52.68          35.84          76.53          48.12          4.826         -17.07         -74.43           59.9         -136.9          13.26          10.52
    0.2381              -52.68          35.84          76.52          48.12          4.822         -17.06         -74.43           59.9         -136.9          13.27          10.53
    0.2646              -52.67          35.83          76.51          48.13          4.817         -17.06         -74.44          59.91         -136.8          13.29          10.55
    0.2911              -52.66          35.82           76.5          48.13          4.812         -17.05         -74.44          59.91         -136.7           13.3          10.56
    0.3175              -52.65          35.82          76.49          48.14          4.807         -17.04         -74.44          59.92         -136.6          13.32          10.57
     0.344              -52.64          35.81          76.47          48.14          4.802         -17.04         -74.44          59.93         -136.6          13.34          10.59
    0.3704              -52.63           35.8          76.46          48.15          4.796         -17.03         -74.45          59.94         -136.5          13.36          10.61
    0.3969              -52.62          35.79          76.45          48.16          4.789         -17.02         -74.45          59.95         -136.4          13.38          10.63
    0.4234              -52.61          35.79          76.43          48.17          4.782         -17.01         -74.46          59.96         -136.3          13.41          10.65
    0.4498              -52.59          35.78          76.41          48.18          4.774          -17.0         -74.46          59.97         -136.2          13.43          10.67
    0.4763              -52.58          35.77          76.39          48.19          4.766         -16.99         -74.47          59.98         -136.0          13.46          10.69
    0.5027              -52.56          35.75          76.37           48.2          4.757         -16.98         -74.47          59.99         -135.9          13.49          10.72
    0.5292              -52.54          35.74          76.35          48.21          4.747         -16.97         -74.48           60.0         -135.7          13.53          10.75
    0.5556              -52.52          35.73          76.32          48.22          4.736         -16.95         -74.49          60.02         -135.6          13.56          10.78
    0.5821               -52.5          35.71          76.29          48.23          4.723         -16.94         -74.49          60.04         -135.4          13.61          10.81
    0.6086              -52.48           35.7          76.26          48.25           4.71         -16.92          -74.5          60.05         -135.2          13.65          10.85
     0.635              -52.45          35.68          76.22          48.27          4.695          -16.9         -74.51          60.08         -135.0           13.7           10.9
    0.6615              -52.42          35.66          76.18          48.29          4.678         -16.88         -74.52           60.1         -134.7          13.76          10.94
    0.6879              -52.39          35.63          76.14          48.31          4.659         -16.85         -74.53          60.12         -134.4          13.82           11.0
    0.7144              -52.35          35.61          76.09          48.33          4.638         -16.83         -74.55          60.15         -134.1           13.9          11.06
    0.7409              -52.31          35.58          76.03          48.36          4.614         -16.79         -74.56          60.19         -133.7          13.98          11.13
    0.7673              -52.26          35.54          75.97          48.39          4.587         -16.76         -74.58          60.22         -133.3          14.07          11.21
    0.7938              -52.21           35.5           75.9          48.43          4.555         -16.72          -74.6          60.27         -132.9          14.18           11.3
    0.8202              -52.14          35.46          75.81          48.47           4.52         -16.67         -74.62          60.32         -132.3           14.3           11.4
